HIERARCHY
ROOT Hips
{
	OFFSET 0.00000 0.00000 0.00000
	CHANNELS 6 Xposition Yposition Zposition Zrotation Yrotation Xrotation 
	JOINT LHipJoint
	{
		OFFSET 0 0 0
		CHANNELS 3 Zrotation Yrotation Xrotation
		JOINT LeftHip
		{
			OFFSET 1.66553 -1.82942 0.76350
			CHANNELS 3 Zrotation Yrotation Xrotation
			JOINT LeftKnee
			{
				OFFSET 2.41740 -6.64177 0.00000
				CHANNELS 3 Zrotation Yrotation Xrotation
				JOINT LeftAnkle
				{
					OFFSET 2.71614 -7.46254 0.00000
					CHANNELS 3 Zrotation Yrotation Xrotation
					JOINT LeftToe
					{
						OFFSET 0.08005 -0.21993 1.82495
						CHANNELS 3 Zrotation Yrotation Xrotation
						End Site
						{
							OFFSET 0.00000 -0.00000 0.93441
						}
					}
				}
			}
		}
	}
	JOINT RHipJoint
	{
		OFFSET 0 0 0
		CHANNELS 3 Zrotation Yrotation Xrotation
		JOINT RightHip
		{
			OFFSET -1.63725 -1.82942 0.76350
			CHANNELS 3 Zrotation Yrotation Xrotation
			JOINT RightKnee
			{
				OFFSET -2.40538 -6.60872 0.00000
				CHANNELS 3 Zrotation Yrotation Xrotation
				JOINT RightAnkle
				{
					OFFSET -2.73312 -7.50919 0.00000
					CHANNELS 3 Zrotation Yrotation Xrotation
					JOINT RightToe
					{
						OFFSET -0.15567 -0.42769 1.93504
						CHANNELS 3 Zrotation Yrotation Xrotation
						End Site
						{
							OFFSET -0.00000 -0.00000 1.00100
						}
					}
				}
			}
		}
	}
	JOINT lowerback
	{
		OFFSET 0 0 0
		CHANNELS 3 Zrotation Yrotation Xrotation
		JOINT Chest
		{
			OFFSET 0.00326 2.30118 -0.13017
			CHANNELS 3 Zrotation Yrotation Xrotation
			JOINT Chest2
			{
				OFFSET 0.02887 2.30677 0.00834
				CHANNELS 3 Zrotation Yrotation Xrotation
				JOINT lowerneck
				{
					OFFSET 0 0 0
					CHANNELS 3 Zrotation Yrotation Xrotation
					JOINT Neck
					{
						OFFSET 0.12946 1.68326 0.00713
						CHANNELS 3 Zrotation Yrotation Xrotation
						JOINT Head
						{
							OFFSET -0.24364 1.67243 -0.16079
							CHANNELS 3 Zrotation Yrotation Xrotation
							End Site
							{
								OFFSET -0.09229 1.70819 -0.06383
							}
						}
					}
				}
				JOINT LeftCollar
				{
					OFFSET 0 0 0
					CHANNELS 3 Zrotation Yrotation Xrotation
					JOINT LeftShoulder
					{
						OFFSET 3.28104 0.69567 -0.00556
CHANNELS 3 Zrotation Xrotation Yrotation
						JOINT LeftElbow
						{
OFFSET 0 -5.707060 -0.000000
CHANNELS 3 Zrotation Xrotation Yrotation
							JOINT LeftWrist
							{
OFFSET 0 -3.332430 0.000000
CHANNELS 3 Zrotation Xrotation Yrotation
								JOINT lhand
								{
									OFFSET 0 0 0
CHANNELS 3 Zrotation Xrotation Yrotation
									JOINT LFingers
									{
OFFSET 0 -0.792690 0.000000
CHANNELS 3 Zrotation Xrotation Yrotation
										End Site
										{
OFFSET 0 -0.639090 0.000000
										}
									}
								}
								JOINT LThumb
								{
OFFSET 0 0.000000 0.000000
CHANNELS 3 Zrotation Xrotation Yrotation
									End Site
									{
OFFSET 0 -0.648840 0.648840
									}
								}
							}
						}
					}
				}
				JOINT RightCollar
				{
					OFFSET 0 0 0
					CHANNELS 3 Zrotation Yrotation Xrotation
					JOINT RightShoulder
					{
						OFFSET -3.40955 0.64424 0.14010
CHANNELS 3 Zrotation Xrotation Yrotation
						JOINT RightElbow
						{
OFFSET 0 -5.881760 -0.000000
CHANNELS 3 Zrotation Xrotation Yrotation
							JOINT RightWrist
							{
OFFSET 0 -3.281560 0.000000
CHANNELS 3 Zrotation Xrotation Yrotation
								JOINT rhand
								{
									OFFSET 0 0 0
CHANNELS 3 Zrotation Xrotation Yrotation
									JOINT RFingers
									{
OFFSET 0 -0.863130 0.000000
CHANNELS 3 Zrotation Xrotation Yrotation
										End Site
										{
OFFSET 0 -0.695870 0.000000
										}
									}
								}
								JOINT RThumb
								{
OFFSET 0 0.000000 0.000000
CHANNELS 3 Zrotation Xrotation Yrotation
									End Site
									{
OFFSET 0 -0.706500 0.706500
									}
								}
							}
						}
					}
				}
			}
		}
	}
}
MOTION
Frames: 8
Frame Time: 0.008333333333333333
16.450949 17.449448 -14.714526 4.156491 -7.014476 27.266713 0.000000 0.000000 0.000000 -15.807920 -23.220171 -47.483543 3.692762 11.739955 34.818092 0.039168 -15.056517 -11.001414 1.208595 -6.974418 -19.639543 0.000000 0.000000 0.000000 -24.540865 29.844470 -37.739885 -0.767472 -5.594098 15.611205 2.240602 -25.845941 -15.595192 -0.000628 0.129267 -0.355054 1.773506 0.847707 24.309735 -4.325263 1.024212 1.456561 -6.282542 0.220068 -11.891055 14.518008 0.743787 -4.145504 -11.525089 0.089260 -6.204379 -5.890673 -0.138647 -1.114480 0.000000 0.000000 0.000000 -4.292430 -56.454584 -83.582573 22.634843 -33.687034 6.934654 49.441830 -18.529065 -29.111465 0.000000 0.000000 0.000000 -7.125000 0.000000 0.000000 28.891765 68.506448 -16.816992 0.000000 0.000000 0.000000 -43.475028 -40.327071 28.905630 -32.240094 -42.737746 -12.903525 -24.786655 -26.822545 1.315616 0.000000 0.000000 0.000000 7.125000 0.000000 0.000000 1.428857 31.426848 0.474296
16.200000 17.512286 -14.759101 3.336693 -5.490590 29.223764 0.000000 0.000000 0.000000 -12.622397 -24.142502 -48.987686 3.386963 11.296533 33.286527 0.031021 -14.032647 -10.215516 1.380533 -7.432765 -21.005003 0.000000 0.000000 0.000000 -21.473841 25.336348 -41.903488 -1.053476 -6.526581 18.320091 1.520589 -21.302815 -10.479763 -0.060090 1.581243 -4.349634 2.157552 0.890142 25.336594 -2.452756 1.432208 0.888653 -4.563583 0.407350 -13.101215 12.674890 0.534768 -5.138228 -13.357358 -0.358644 -6.641199 -6.169474 -0.335162 -1.112958 0.000000 0.000000 0.000000 -3.679940 -54.103798 -81.485143 25.530423 -36.741176 8.605169 47.105849 -20.495975 -29.816544 0.000000 0.000000 0.000000 -7.125000 0.000000 0.000000 24.687482 68.585756 -14.292771 0.000000 0.000000 0.000000 -45.722630 -42.829917 24.918577 -30.939011 -41.684739 -12.029297 -23.675841 -24.137813 0.626747 0.000000 0.000000 0.000000 7.125000 0.000000 0.000000 2.294600 30.659681 0.804399
15.880056 17.578410 -14.709573 1.741769 -4.105088 32.395771 0.000000 0.000000 0.000000 -8.034362 -24.280614 -51.907940 3.172766 10.969650 32.177520 0.092916 -12.983849 -10.260133 2.097507 -9.065657 -26.001215 0.000000 0.000000 0.000000 -21.296051 26.398532 -45.390620 -1.123102 -6.731718 18.922906 1.623997 -21.978043 -10.936292 -0.031629 1.140268 -3.134949 2.388551 0.923777 25.121504 -0.596180 1.818646 -0.367649 -2.730120 0.599851 -14.486347 12.005199 1.098778 -5.063959 -15.190335 0.307241 -7.336295 -6.642892 0.044811 -1.209828 0.000000 0.000000 0.000000 -2.876012 -52.846687 -80.103309 27.036350 -38.213742 9.521643 47.975310 -21.192907 -30.433669 0.000000 0.000000 0.000000 -7.125000 0.000000 0.000000 26.659386 69.559254 -16.065485 0.000000 0.000000 0.000000 -45.451958 -45.659274 20.758840 -29.255324 -40.246415 -10.925311 -22.649362 -22.780460 -0.813056 0.000000 0.000000 0.000000 7.125000 0.000000 0.000000 3.061316 29.092761 1.188063
15.542399 17.623300 -14.594227 1.690947 -4.304435 34.809406 0.000000 0.000000 0.000000 -5.173814 -24.849652 -53.809689 3.081770 10.826201 31.695914 0.202375 -11.377093 -10.665166 2.217960 -9.302638 -26.749206 0.000000 0.000000 0.000000 -20.635668 25.161128 -48.978262 -1.264073 -7.126774 20.091446 1.305946 -19.936645 -10.690485 -0.031234 1.130483 -3.108117 2.231617 0.836372 25.115095 -0.342395 1.723943 -1.664494 -2.341106 0.537073 -16.067879 11.552226 1.918144 -4.478670 -17.395868 1.340746 -7.918446 -7.276113 0.643193 -1.284826 0.000000 0.000000 0.000000 0.014455 -51.544033 -77.495505 28.619299 -39.680105 10.516758 48.203612 -22.149299 -29.328826 0.000000 0.000000 0.000000 -7.125000 0.000000 0.000000 26.578539 68.370902 -15.316578 0.000000 0.000000 0.000000 -40.302351 -49.781973 12.988450 -25.932895 -37.142392 -8.847114 -20.817387 -20.242585 -5.490212 0.000000 0.000000 0.000000 7.125000 0.000000 0.000000 4.372531 24.110498 2.210369
15.227048 17.634875 -14.512028 1.306296 -6.053813 36.796829 0.000000 0.000000 0.000000 -3.148911 -24.022522 -55.278131 3.032003 10.746713 31.430298 0.350252 -9.370085 -11.590067 2.900509 -10.532068 -30.717639 0.000000 0.000000 0.000000 -20.607490 25.521581 -52.519391 -1.341449 -7.333102 20.706086 1.182658 -19.017033 -10.142785 -0.024127 0.973382 -2.675834 2.198046 0.936617 25.557127 -0.761543 1.808213 -2.833130 -2.758315 0.532794 -17.001575 11.486068 2.670228 -3.127503 -19.112754 2.111464 -10.295751 -7.882526 1.188126 -2.030954 0.000000 0.000000 0.000000 4.466851 -51.192512 -73.334802 31.767258 -42.360628 12.583839 48.434769 -22.783371 -30.034458 0.000000 0.000000 0.000000 -7.125000 0.000000 0.000000 27.382126 69.246284 -16.334222 0.000000 0.000000 0.000000 -32.502050 -53.942942 9.136080 -24.003490 -35.167939 -7.708528 -23.003940 -23.042038 -8.789323 0.000000 0.000000 0.000000 7.125000 0.000000 0.000000 2.802634 20.449921 1.648743
14.994323 17.608208 -14.468181 2.396109 -7.591899 38.138602 0.000000 0.000000 0.000000 -3.337234 -23.761974 -55.943709 2.816377 10.391754 30.254925 0.341151 -8.600811 -11.223590 2.799007 -10.361534 -30.156302 0.000000 0.000000 0.000000 -20.197642 23.607388 -55.842972 -1.560334 -7.882962 22.359268 0.967514 -17.132430 -7.604626 -0.567003 4.822580 -13.403155 2.829133 0.205686 25.263956 -1.834585 0.846916 -2.709223 -3.922763 0.002006 -16.741112 11.443185 3.712407 -1.778589 -20.026409 3.366174 -12.170042 -8.243308 1.966054 -2.566940 0.000000 0.000000 0.000000 9.445737 -51.795007 -67.792267 33.677756 -43.844459 13.889443 47.090419 -23.711348 -31.138867 0.000000 0.000000 0.000000 -7.125000 0.000000 0.000000 25.186294 70.082298 -15.426012 0.000000 0.000000 0.000000 -25.714711 -57.364594 13.258481 -23.808566 -34.961113 -7.596597 -26.074715 -26.533969 -8.517047 0.000000 0.000000 0.000000 7.125000 0.000000 0.000000 0.582773 20.514520 0.341605
14.704901 17.647073 -14.487389 5.483229 -8.432123 38.077212 0.000000 0.000000 0.000000 -7.402453 -22.334189 -56.473846 2.758542 10.293479 29.932450 -0.012383 -10.890803 -7.446054 3.534346 -11.511736 -34.028080 0.000000 0.000000 0.000000 -20.465479 21.784410 -57.293817 -1.887008 -8.626558 24.634165 1.015656 -17.771811 -10.017545 -0.384376 3.981118 -11.023682 3.229554 -0.798535 26.113764 -3.456028 -0.619814 -2.604079 -5.399279 -0.782781 -17.245282 10.852267 4.236782 -0.854077 -20.245227 3.969388 -13.484599 -8.273926 2.390327 -3.013318 0.000000 0.000000 0.000000 14.411371 -52.385492 -64.333251 34.978055 -44.796373 14.797901 49.127808 -23.054137 -29.775089 0.000000 0.000000 0.000000 -7.125000 0.000000 0.000000 28.648820 69.165448 -17.085087 0.000000 0.000000 0.000000 -21.923576 -58.721095 17.696990 -23.827291 -34.981143 -7.607347 -31.238688 -29.476059 -7.814833 0.000000 0.000000 0.000000 7.125000 0.000000 0.000000 -3.178981 20.866703 -1.840907
14.100466 17.722778 -14.638404 9.603786 -7.410659 37.837044 0.000000 0.000000 0.000000 -10.029233 -22.225367 -58.491082 2.927730 10.577103 30.866533 -0.498945 -12.529114 2.773053 2.500882 -9.821110 -28.414894 0.000000 0.000000 0.000000 -20.469714 18.829050 -59.047690 -2.386344 -9.628241 27.780957 0.840503 -17.047446 -12.767582 -0.046346 1.369876 -3.767466 2.882025 -1.470921 26.725991 -5.073717 -1.895115 -2.228322 -6.509801 -1.396594 -17.362923 10.497683 4.029408 -0.695323 -20.727050 3.670509 -13.262085 -8.372016 2.287484 -3.017416 0.000000 0.000000 0.000000 16.189839 -54.384661 -61.486064 34.963907 -44.786347 14.787938 48.649430 -21.405515 -30.992526 0.000000 0.000000 0.000000 -7.125000 0.000000 0.000000 28.349684 70.397026 -17.657912 0.000000 0.000000 0.000000 -23.217478 -60.550304 16.412286 -22.132031 -33.125895 -6.657859 -34.825198 -28.733632 -4.778489 0.000000 0.000000 0.000000 7.125000 0.000000 0.000000 -6.070232 24.168210 -3.069812
